<svg xmlns="http://www.w3.org/2000/svg" width="414.762" height="88.116" viewBox="0 0 414.762 88.116">
  <g id="mResilience-logo-lg" transform="translate(207.381 44.058)">
    <g id="Vector_Smart_Object" data-name="Vector Smart Object" transform="translate(-207.381 -44.058)">
      <path id="Path_4990" data-name="Path 4990" d="M64.11,72.029,55.421,89.908a12.138,12.138,0,0,0-1.435,4.127.721.721,0,0,0,.8.809c2.073,0,6.777-7.121,7.653-7.121.8,0,1.2.89,1.2,1.376,0,.647-8.53,10.922-13.394,10.922-2.63,0-3.9-1.214-3.9-3.4a15.331,15.331,0,0,1,1.832-6.068l8.61-17.8a6.491,6.491,0,0,0,.877-2.993A1.885,1.885,0,0,0,55.5,67.822c-3.508,0-9.646,9.627-17.857,22.651L34.454,97.35c-.558,1.053-1.515,1.7-3.747,1.7-2.949,0-3.667-.89-3.268-1.7L39,72.756a6.678,6.678,0,0,0,.8-2.832,1.951,1.951,0,0,0-2.232-2.1c-4.066,0-10.124,9.708-18.1,22.651l-3.11,6.875c-.4.972-1.515,1.7-3.747,1.7-2.949,0-3.667-.89-3.268-1.7l11.24-24.594a13.193,13.193,0,0,0,1.275-3.964c0-.566-.239-.971-.8-.971-2.152,0-6.776,7.12-7.414,7.12a1.449,1.449,0,0,1-1.275-1.376c0-.728,8.212-10.922,13.074-10.922,2.949,0,3.985,1.618,3.985,3.64a15.554,15.554,0,0,1-1.594,5.745L26.08,75.911C30.066,68.954,36.444,62.644,42.1,62.644c3.748,0,5.183,2.508,5.183,5.339a10.038,10.038,0,0,1-.957,4.045l-1.594,3.316c4.145-6.795,9.8-12.7,15.306-12.7,3.667,0,5.1,2.508,5.1,5.178A9.644,9.644,0,0,1,64.11,72.029Z" transform="translate(-9.242 -45.965)" fill="#fff"/>
      <g id="Group_2636" data-name="Group 2636" transform="translate(-9.242 -45.965)">
        <path id="Path_4991" data-name="Path 4991" d="M100.943,99.144,91.953,85.97H82.031V99.144H71.245V51.849H91.421a25.588,25.588,0,0,1,10.754,2.095A16.058,16.058,0,0,1,109.2,59.89a16.573,16.573,0,0,1,2.462,9.121,16.233,16.233,0,0,1-2.5,9.088,15.886,15.886,0,0,1-7.091,5.843l10.453,15.2ZM98.213,62.9q-2.533-2.128-7.391-2.128H82.031V77.253h8.791q4.86,0,7.391-2.161a7.564,7.564,0,0,0,2.531-6.081A7.544,7.544,0,0,0,98.213,62.9Z" fill="#fff"/>
        <path id="Path_4992" data-name="Path 4992" d="M152.546,83.941h-27.1a8.569,8.569,0,0,0,3.462,5.338,11.35,11.35,0,0,0,6.792,1.96,13.541,13.541,0,0,0,4.962-.846,12,12,0,0,0,4.027-2.667l5.527,6.079q-5.059,5.88-14.781,5.88a23.1,23.1,0,0,1-10.721-2.4,17.408,17.408,0,0,1-7.191-6.655,18.542,18.542,0,0,1-2.531-9.661,18.793,18.793,0,0,1,2.5-9.628,17.6,17.6,0,0,1,6.859-6.689,20.962,20.962,0,0,1,19.277-.1,16.652,16.652,0,0,1,6.691,6.587A19.879,19.879,0,0,1,152.75,81.1Q152.746,81.306,152.546,83.941Zm-24.3-11.688a8.665,8.665,0,0,0-2.93,5.541H142.96a8.565,8.565,0,0,0-8.789-7.567,8.861,8.861,0,0,0-5.928,2.026Z" fill="#fff"/>
        <path id="Path_4993" data-name="Path 4993" d="M162.866,98.569a22.572,22.572,0,0,1-6.792-2.8l3.462-7.566a21.6,21.6,0,0,0,5.793,2.533,23.929,23.929,0,0,0,6.659.981q6.592,0,6.593-3.312a2.339,2.339,0,0,0-1.8-2.23,26.309,26.309,0,0,0-5.525-1.147A52.316,52.316,0,0,1,164,83.468a11.209,11.209,0,0,1-4.962-3.107,8.919,8.919,0,0,1-2.1-6.351A10.046,10.046,0,0,1,158.9,67.9a12.65,12.65,0,0,1,5.726-4.155,24.144,24.144,0,0,1,8.889-1.486,34.448,34.448,0,0,1,7.559.844A21,21,0,0,1,187.3,65.43l-3.463,7.5a20.439,20.439,0,0,0-10.32-2.7,10.369,10.369,0,0,0-4.993.946,2.782,2.782,0,0,0-1.664,2.432,2.407,2.407,0,0,0,1.8,2.364,31.335,31.335,0,0,0,5.726,1.284,60.7,60.7,0,0,1,7.191,1.589,10.78,10.78,0,0,1,4.86,3.074,8.806,8.806,0,0,1,2.065,6.216,9.686,9.686,0,0,1-2,6.013,12.748,12.748,0,0,1-5.826,4.088,25.626,25.626,0,0,1-9.088,1.454,34.34,34.34,0,0,1-8.722-1.121Z" fill="#fff"/>
        <path id="Path_4994" data-name="Path 4994" d="M195.294,56.038a5.776,5.776,0,0,1,0-8.378,6.534,6.534,0,0,1,4.66-1.689,6.691,6.691,0,0,1,4.66,1.622,5.231,5.231,0,0,1,1.8,4.054,5.777,5.777,0,0,1-1.8,4.358,6.457,6.457,0,0,1-4.66,1.723,6.526,6.526,0,0,1-4.66-1.69Zm-.534,6.756h10.389v36.35H194.76Z" fill="#fff"/>
        <path id="Path_4995" data-name="Path 4995" d="M214.667,49.012h10.389V99.144H214.667Z" fill="#fff"/>
        <path id="Path_4996" data-name="Path 4996" d="M235.11,56.038a5.776,5.776,0,0,1,0-8.378,6.534,6.534,0,0,1,4.66-1.689,6.691,6.691,0,0,1,4.66,1.622,5.231,5.231,0,0,1,1.8,4.054,5.777,5.777,0,0,1-1.8,4.358,6.457,6.457,0,0,1-4.66,1.723,6.526,6.526,0,0,1-4.66-1.69Zm-.534,6.756h10.389v36.35H234.576Z" fill="#fff"/>
        <path id="Path_4997" data-name="Path 4997" d="M289.377,83.941h-27.1a8.569,8.569,0,0,0,3.462,5.338,11.35,11.35,0,0,0,6.792,1.96,13.541,13.541,0,0,0,4.962-.846,12,12,0,0,0,4.027-2.667l5.527,6.079q-5.059,5.88-14.781,5.88a23.1,23.1,0,0,1-10.721-2.4,17.408,17.408,0,0,1-7.191-6.655,18.542,18.542,0,0,1-2.531-9.661,18.793,18.793,0,0,1,2.5-9.628,17.6,17.6,0,0,1,6.859-6.689,20.962,20.962,0,0,1,19.277-.1,16.652,16.652,0,0,1,6.691,6.587,19.879,19.879,0,0,1,2.431,9.966Q289.577,81.306,289.377,83.941Zm-24.3-11.688a8.665,8.665,0,0,0-2.93,5.541h17.644A8.565,8.565,0,0,0,271,70.227a8.861,8.861,0,0,0-5.927,2.026Z" fill="#fff"/>
        <path id="Path_4998" data-name="Path 4998" d="M328.894,66.308q4.1,4.054,4.1,12.027V99.144H322.6V79.955q0-4.322-1.864-6.451a6.793,6.793,0,0,0-5.394-2.129,8.206,8.206,0,0,0-6.26,2.466q-2.33,2.469-2.329,7.332V99.144H296.367V62.795h9.921v4.257a13.775,13.775,0,0,1,5.128-3.548,17.637,17.637,0,0,1,6.726-1.25,14.623,14.623,0,0,1,10.752,4.054Z" fill="#fff"/>
        <path id="Path_4999" data-name="Path 4999" d="M349.668,97.285a17.784,17.784,0,0,1-7.125-6.655,19.485,19.485,0,0,1,0-19.323,17.8,17.8,0,0,1,7.125-6.655,21.765,21.765,0,0,1,10.289-2.4,19.7,19.7,0,0,1,9.886,2.4A14.152,14.152,0,0,1,376,71.511L367.946,75.9q-2.8-5-8.057-5a9.049,9.049,0,0,0-6.724,2.7,10.033,10.033,0,0,0-2.664,7.365,10.027,10.027,0,0,0,2.664,7.365,9.045,9.045,0,0,0,6.724,2.7,8.7,8.7,0,0,0,8.057-5L376,90.5a14.435,14.435,0,0,1-6.16,6.757,19.476,19.476,0,0,1-9.886,2.433,21.754,21.754,0,0,1-10.286-2.4Z" fill="#fff"/>
        <path id="Path_5000" data-name="Path 5000" d="M416.287,83.941h-27.1a8.569,8.569,0,0,0,3.462,5.338,11.35,11.35,0,0,0,6.792,1.96,13.541,13.541,0,0,0,4.962-.846,12,12,0,0,0,4.027-2.667l5.527,6.079q-5.059,5.88-14.781,5.88a23.1,23.1,0,0,1-10.721-2.4,17.408,17.408,0,0,1-7.191-6.655,18.542,18.542,0,0,1-2.531-9.661,18.793,18.793,0,0,1,2.5-9.628,17.6,17.6,0,0,1,6.859-6.689,20.962,20.962,0,0,1,19.277-.1,16.652,16.652,0,0,1,6.691,6.587,19.879,19.879,0,0,1,2.431,9.966Q416.486,81.306,416.287,83.941Zm-24.3-11.688a8.665,8.665,0,0,0-2.93,5.541H406.7a8.565,8.565,0,0,0-8.789-7.567,8.861,8.861,0,0,0-5.928,2.026Z" fill="#fff"/>
      </g>
      <path id="Path_5001" data-name="Path 5001" d="M417.731,60.791v.81h-1.566V65.69h-.972V61.6h-1.566v-.81Zm5.3,4.9-.179-2.882c-.018-.378-.018-.847-.037-1.369h-.054c-.127.432-.272,1.009-.416,1.458l-.881,2.72h-1.009l-.883-2.792c-.091-.378-.235-.954-.342-1.386h-.055c0,.45-.017.919-.035,1.369l-.179,2.882h-.938l.362-4.9h1.457l.848,2.4c.107.379.2.739.323,1.243h.018c.126-.451.235-.864.342-1.225l.846-2.413h1.406l.379,4.9Z" transform="translate(-9.242 -45.965)" fill="#fff"/>
      <text id="powered_by_tiag" data-name="powered by tiag" transform="translate(143.504 81.116)" fill="#fff" font-size="29.36" font-family="Helvetica-LightOblique, Helvetica" font-weight="300" font-style="oblique" letter-spacing="0.05em"><tspan x="0" y="0">p</tspan><tspan y="0" letter-spacing="0.043em">o</tspan><tspan y="0" letter-spacing="0.04em">w</tspan><tspan y="0">e</tspan><tspan y="0" letter-spacing="0.04em">r</tspan><tspan y="0">ed </tspan><tspan y="0" letter-spacing="0.043em">b</tspan><tspan y="0">y </tspan><tspan y="0" font-family="Helvetica-BoldOblique, Helvetica" font-weight="700">tiag</tspan></text>
      <line id="Line_13" data-name="Line 13" x1="138.758" transform="translate(0 75.535)" fill="none" stroke="#fff" stroke-miterlimit="10" stroke-width="4"/>
    </g>
  </g>
</svg>
