<svg id="Group_53" data-name="Group 53" xmlns="http://www.w3.org/2000/svg" width="123.72" height="15.917" viewBox="0 0 123.72 15.917">
  <path id="Path_723" data-name="Path 723" d="M16.393,18.932,13.8,24.2a3.54,3.54,0,0,0-.429,1.214.213.213,0,0,0,.238.238c.619,0,2.025-2.1,2.287-2.1.238,0,.357.262.357.405,0,.191-2.55,3.216-4,3.216-.786,0-1.167-.358-1.167-1a4.463,4.463,0,0,1,.547-1.787L14.2,19.145a1.887,1.887,0,0,0,.262-.88c0-.357-.238-.572-.643-.572-1.048,0-2.882,2.835-5.336,6.67L7.53,26.388c-.167.31-.453.5-1.119.5-.88,0-1.1-.262-.977-.5L8.89,19.147a1.95,1.95,0,0,0,.238-.834c0-.4-.238-.619-.668-.619-1.214,0-3.025,2.858-5.408,6.67l-.929,2.025c-.119.286-.453.5-1.119.5-.88,0-1.1-.262-.977-.5l3.36-7.242a3.838,3.838,0,0,0,.381-1.167c0-.167-.071-.286-.238-.286-.643,0-2.025,2.095-2.216,2.095a.429.429,0,0,1-.381-.405c0-.214,2.453-3.216,3.907-3.216.88,0,1.191.476,1.191,1.072a4.527,4.527,0,0,1-.476,1.693L5.03,20.076c1.191-2.049,3.1-3.907,4.788-3.907a1.43,1.43,0,0,1,1.548,1.572,2.918,2.918,0,0,1-.286,1.191l-.476.977c1.239-2,2.93-3.74,4.574-3.74A1.409,1.409,0,0,1,16.7,17.694,2.8,2.8,0,0,1,16.393,18.932Z" transform="translate(0.003 -11.257)" fill="#001365"/>
  <g id="Group_51" data-name="Group 51" transform="translate(18.527)">
    <path id="Path_724" data-name="Path 724" d="M69.892,19.622l-2.685-3.88H64.242v3.88H61.019V5.7h6.028a7.74,7.74,0,0,1,3.213.617,4.776,4.776,0,0,1,2.1,1.751,4.825,4.825,0,0,1,.736,2.686,4.537,4.537,0,0,1-2.865,4.4l3.124,4.476ZM69.076,8.948a3.385,3.385,0,0,0-2.208-.627H64.242v4.854h2.626a3.344,3.344,0,0,0,2.208-.638,2.213,2.213,0,0,0,.756-1.791A2.207,2.207,0,0,0,69.076,8.948Z" transform="translate(-61.019 -3.963)" fill="#001365"/>
    <path id="Path_725" data-name="Path 725" d="M115.293,22.182h-8.1a2.52,2.52,0,0,0,1.034,1.571,3.425,3.425,0,0,0,2.029.577,4.1,4.1,0,0,0,1.482-.249,3.587,3.587,0,0,0,1.205-.784l1.651,1.791a5.55,5.55,0,0,1-4.417,1.731,6.986,6.986,0,0,1-3.2-.706,5.174,5.174,0,0,1-2.149-1.96,5.4,5.4,0,0,1-.756-2.845,5.471,5.471,0,0,1,.746-2.835,5.228,5.228,0,0,1,2.049-1.97,6.345,6.345,0,0,1,5.759-.03,4.941,4.941,0,0,1,2,1.94,5.785,5.785,0,0,1,.726,2.934Q115.352,21.406,115.293,22.182Zm-7.262-3.442a2.541,2.541,0,0,0-.875,1.632h5.272a2.568,2.568,0,0,0-.875-1.622,2.617,2.617,0,0,0-1.751-.607A2.672,2.672,0,0,0,108.031,18.74Z" transform="translate(-91.001 -10.999)" fill="#001365"/>
    <path id="Path_726" data-name="Path 726" d="M146.528,26.48a6.8,6.8,0,0,1-2.029-.826l1.034-2.228a6.5,6.5,0,0,0,1.731.746,7.249,7.249,0,0,0,1.99.288q1.97,0,1.97-.975a.69.69,0,0,0-.537-.656,7.981,7.981,0,0,0-1.651-.338,15.89,15.89,0,0,1-2.169-.458,3.363,3.363,0,0,1-1.482-.915,2.6,2.6,0,0,1-.627-1.87,2.929,2.929,0,0,1,.587-1.8,3.776,3.776,0,0,1,1.711-1.224,7.309,7.309,0,0,1,2.656-.438,10.427,10.427,0,0,1,2.258.249,6.327,6.327,0,0,1,1.86.686l-1.034,2.208a6.179,6.179,0,0,0-3.084-.8,3.137,3.137,0,0,0-1.492.278.82.82,0,0,0-.5.716.711.711,0,0,0,.537.7,9.5,9.5,0,0,0,1.711.378,18.352,18.352,0,0,1,2.149.468,3.23,3.23,0,0,1,1.452.905,2.57,2.57,0,0,1,.617,1.83,2.827,2.827,0,0,1-.6,1.771,3.81,3.81,0,0,1-1.741,1.2,7.756,7.756,0,0,1-2.715.428,10.4,10.4,0,0,1-2.605-.327Z" transform="translate(-119.154 -10.99)" fill="#001365"/>
    <path id="Path_727" data-name="Path 727" d="M181.864,2.96a1.612,1.612,0,0,1-.539-1.234,1.613,1.613,0,0,1,.539-1.233,1.97,1.97,0,0,1,1.391-.5,2.018,2.018,0,0,1,1.393.478,1.531,1.531,0,0,1,.537,1.194,1.69,1.69,0,0,1-.537,1.283,1.946,1.946,0,0,1-1.393.507,1.968,1.968,0,0,1-1.391-.5ZM181.7,4.95h3.1v10.7H181.7Z" transform="translate(-144.799 0.006)" fill="#001365"/>
    <path id="Path_728" data-name="Path 728" d="M202.163,2.949h3.1V17.711h-3.1Z" transform="translate(-159.31 -2.052)" fill="#001365"/>
    <path id="Path_729" data-name="Path 729" d="M221.047,2.96a1.613,1.613,0,0,1-.537-1.234,1.613,1.613,0,0,1,.537-1.233,1.97,1.97,0,0,1,1.393-.5,2.018,2.018,0,0,1,1.393.478,1.531,1.531,0,0,1,.537,1.194,1.69,1.69,0,0,1-.537,1.283,1.946,1.946,0,0,1-1.393.507,1.968,1.968,0,0,1-1.393-.5Zm-.159,1.99h3.1v10.7h-3.1Z" transform="translate(-172.086 0.006)" fill="#001365"/>
    <path id="Path_730" data-name="Path 730" d="M249.947,22.177h-8.1a2.52,2.52,0,0,0,1.035,1.571,3.425,3.425,0,0,0,2.029.577,4.1,4.1,0,0,0,1.482-.249,3.585,3.585,0,0,0,1.2-.786l1.651,1.791a5.55,5.55,0,0,1-4.417,1.731,6.986,6.986,0,0,1-3.2-.706,5.175,5.175,0,0,1-2.149-1.96,5.4,5.4,0,0,1-.756-2.845,5.472,5.472,0,0,1,.746-2.835,5.228,5.228,0,0,1,2.049-1.97,6.344,6.344,0,0,1,5.759-.03,4.941,4.941,0,0,1,2,1.94,5.786,5.786,0,0,1,.726,2.934Q250.007,21.4,249.947,22.177Zm-7.262-3.442a2.541,2.541,0,0,0-.875,1.632h5.272a2.567,2.567,0,0,0-.875-1.622,2.617,2.617,0,0,0-1.751-.607A2.672,2.672,0,0,0,242.685,18.735Z" transform="translate(-184.772 -10.994)" fill="#001365"/>
    <path id="Path_731" data-name="Path 731" d="M292.284,16.973a4.733,4.733,0,0,1,1.223,3.541v6.127h-3.1v-5.65a2.79,2.79,0,0,0-.557-1.9,2.044,2.044,0,0,0-1.612-.627,2.47,2.47,0,0,0-1.87.726,3.006,3.006,0,0,0-.7,2.158v5.292h-3.1v-10.7h2.964v1.253a4.119,4.119,0,0,1,1.532-1.046,5.339,5.339,0,0,1,2.009-.368,4.405,4.405,0,0,1,3.213,1.2Z" transform="translate(-215.301 -10.983)" fill="#001365"/>
    <path id="Path_732" data-name="Path 732" d="M328.378,26.1a5.285,5.285,0,0,1-2.129-1.96,5.666,5.666,0,0,1,0-5.69,5.288,5.288,0,0,1,2.129-1.96,6.584,6.584,0,0,1,3.074-.706,5.961,5.961,0,0,1,2.954.706,4.191,4.191,0,0,1,1.84,2.019l-2.408,1.293a2.631,2.631,0,0,0-2.407-1.472,2.724,2.724,0,0,0-2.009.8,2.929,2.929,0,0,0-.8,2.169,2.929,2.929,0,0,0,.8,2.168,2.722,2.722,0,0,0,2.009.8,2.6,2.6,0,0,0,2.407-1.472l2.408,1.313a4.274,4.274,0,0,1-1.841,1.99,5.89,5.89,0,0,1-2.954.716,6.581,6.581,0,0,1-3.074-.706Z" transform="translate(-245.189 -10.991)" fill="#001365"/>
    <path id="Path_733" data-name="Path 733" d="M374.841,22.177h-8.1a2.52,2.52,0,0,0,1.034,1.571,3.425,3.425,0,0,0,2.029.577,4.1,4.1,0,0,0,1.482-.249,3.584,3.584,0,0,0,1.2-.786l1.651,1.791a5.55,5.55,0,0,1-4.417,1.731,6.986,6.986,0,0,1-3.2-.706,5.175,5.175,0,0,1-2.149-1.96,5.4,5.4,0,0,1-.756-2.845,5.472,5.472,0,0,1,.746-2.835,5.228,5.228,0,0,1,2.049-1.97,6.344,6.344,0,0,1,5.759-.03,4.941,4.941,0,0,1,2,1.94,5.786,5.786,0,0,1,.726,2.934Q374.9,21.4,374.841,22.177Zm-7.262-3.442a2.541,2.541,0,0,0-.875,1.632h5.272a2.567,2.567,0,0,0-.875-1.622,2.617,2.617,0,0,0-1.751-.607,2.672,2.672,0,0,0-1.77.6Z" transform="translate(-271.746 -10.994)" fill="#001365"/>
  </g>
  <path id="Path_776" data-name="Path 776" d="M398.63,14.36V14.6h-.462V15.8h-.287V14.6h-.462V14.36Zm1.561,1.444-.053-.85c-.005-.111-.005-.25-.011-.4h-.016c-.037.127-.08.3-.121.43l-.26.8h-.3l-.26-.823c-.026-.111-.069-.281-.1-.409h-.016c0,.133-.005.271-.01.4l-.053.85h-.276l.106-1.444h.43l.249.706c.032.112.058.218.1.366h.005c.037-.133.069-.255.1-.361l.249-.711h.414l.111,1.444Z" transform="translate(-276.758 -9.998)" fill="#001365"/>
</svg>
