<svg xmlns="http://www.w3.org/2000/svg" width="243.605" height="64.526" viewBox="0 0 243.605 64.526">
  <g id="mRes" transform="translate(121.803 32.263)">
    <g id="Group_47" data-name="Group 47" transform="translate(-121.803 -32.263)">
      <path id="Path_707" data-name="Path 707" d="M74.573,27.028,62.763,50.973c-1.084,2.166-1.951,4.333-1.951,5.525A.972.972,0,0,0,61.9,57.582c2.817,0,9.21-9.536,10.4-9.536,1.084,0,1.626,1.192,1.626,1.842,0,.867-11.594,14.628-18.2,14.628-3.576,0-5.309-1.626-5.309-4.551,0-2.058.867-4.767,2.492-8.126L64.6,28a8.583,8.583,0,0,0,1.2-4.006c0-1.625-1.084-2.6-2.925-2.6-4.768,0-13.111,12.893-24.27,30.336l-4.338,9.21c-.759,1.409-2.059,2.275-5.092,2.275-4.009,0-4.984-1.191-4.442-2.275L40.443,28a8.869,8.869,0,0,0,1.084-3.792c0-1.841-1.084-2.816-3.034-2.816-5.526,0-13.76,13-24.595,30.336L9.672,60.94c-.542,1.3-2.059,2.275-5.092,2.275C.571,63.215-.4,62.024.137,60.94L15.414,28c.867-2.059,1.734-4.009,1.734-5.309,0-.759-.325-1.3-1.084-1.3-2.925,0-9.209,9.534-10.076,9.534a1.951,1.951,0,0,1-1.734-1.842c0-.975,11.159-14.626,17.769-14.626,4.009,0,5.418,2.166,5.418,4.875,0,2.384-1.084,5.309-2.167,7.693l-2.384,5.2C28.308,22.911,36.976,14.46,44.669,14.46c5.092,0,7.043,3.359,7.043,7.151a13.272,13.272,0,0,1-1.3,5.417L48.244,31.47c5.634-9.1,13.326-17.01,20.8-17.01,4.984,0,6.934,3.359,6.934,6.934A12.754,12.754,0,0,1,74.573,27.028Z" transform="translate(-0.001 0.01)" fill="#5a5b5e"/>
      <path id="Path_708" data-name="Path 708" d="M124.62,63.342,112.4,45.7H98.921V63.342H84.262V0H111.68a35.2,35.2,0,0,1,14.614,2.806,21.724,21.724,0,0,1,9.546,7.963,21.945,21.945,0,0,1,3.348,12.216,21.5,21.5,0,0,1-3.388,12.17,21.5,21.5,0,0,1-9.637,7.827l14.206,20.36Zm-3.71-48.547q-3.44-2.85-10.044-2.85H98.921V34.024h11.945q6.6,0,10.044-2.9a10.064,10.064,0,0,0,3.439-8.145q0-5.332-3.439-8.184Z" transform="translate(-0.001 0.01)" fill="#003587"/>
      <path id="Path_709" data-name="Path 709" d="M194.748,42.982H157.919a11.459,11.459,0,0,0,4.705,7.148,15.579,15.579,0,0,0,9.23,2.624,18.67,18.67,0,0,0,6.741-1.131,16.315,16.315,0,0,0,5.474-3.574l7.511,8.144q-6.879,7.873-20.089,7.873a31.773,31.773,0,0,1-14.568-3.212,23.535,23.535,0,0,1-9.773-8.914A24.545,24.545,0,0,1,143.712,39a24.884,24.884,0,0,1,3.394-12.9,23.779,23.779,0,0,1,9.321-8.958,28.855,28.855,0,0,1,26.2-.136,22.476,22.476,0,0,1,9.094,8.823,26.312,26.312,0,0,1,3.3,13.347Q195.019,39.453,194.748,42.982ZM161.719,27.328a11.559,11.559,0,0,0-3.981,7.42h23.979a11.678,11.678,0,0,0-3.982-7.375,11.9,11.9,0,0,0-7.963-2.76A12.156,12.156,0,0,0,161.719,27.328Z" transform="translate(-0.001 0.01)" fill="#003587"/>
      <path id="Path_710" data-name="Path 710" d="M208.772,62.573a30.934,30.934,0,0,1-9.229-3.756l4.705-10.134a29.584,29.584,0,0,0,7.873,3.393,32.973,32.973,0,0,0,9.049,1.312q8.958,0,8.958-4.434,0-2.079-2.444-2.986a36.3,36.3,0,0,0-7.51-1.538,72.272,72.272,0,0,1-9.863-2.081,15.3,15.3,0,0,1-6.741-4.163q-2.85-2.986-2.85-8.506a13.322,13.322,0,0,1,2.669-8.189,17.175,17.175,0,0,1,7.782-5.565,33.245,33.245,0,0,1,12.08-1.991,47.424,47.424,0,0,1,10.27,1.131,28.776,28.776,0,0,1,8.461,3.122l-4.705,10.044a28.106,28.106,0,0,0-14.026-3.62,14.268,14.268,0,0,0-6.787,1.267,3.725,3.725,0,0,0-2.262,3.257,3.232,3.232,0,0,0,2.443,3.167,43.2,43.2,0,0,0,7.782,1.719,83.471,83.471,0,0,1,9.773,2.127,14.691,14.691,0,0,1,6.606,4.116q2.8,2.988,2.8,8.325a12.856,12.856,0,0,1-2.715,8.054,17.329,17.329,0,0,1-7.918,5.474,35.275,35.275,0,0,1-12.351,1.946,47.3,47.3,0,0,1-11.85-1.491Z" transform="translate(-0.001 0.01)" fill="#003587"/>
    </g>
  </g>
</svg>
