<svg xmlns="http://www.w3.org/2000/svg" width="287" height="36.924" viewBox="0 0 287 36.924">
  <g id="mResFull" transform="translate(-85 -61.997)">
    <g id="Group_24" data-name="Group 24" transform="translate(85 61.997)">
      <path id="Path_334" data-name="Path 334" d="M38.031,22.581,32.009,34.793a8.213,8.213,0,0,0-1,2.817.493.493,0,0,0,.553.553c1.437,0,4.7-4.863,5.3-4.863.553,0,.829.608.829.94,0,.442-5.916,7.461-9.284,7.461-1.823,0-2.708-.83-2.708-2.324a10.353,10.353,0,0,1,1.268-4.145l5.968-12.157a4.377,4.377,0,0,0,.608-2.042c0-.829-.553-1.326-1.492-1.326-2.432,0-6.687,6.575-12.378,15.472l-2.211,4.7c-.387.719-1.05,1.16-2.6,1.16-2.042,0-2.542-.607-2.266-1.16l8.016-16.8a4.523,4.523,0,0,0,.553-1.934c0-.939-.553-1.437-1.549-1.437-2.817,0-7.018,6.631-12.544,15.472l-2.156,4.7c-.277.663-1.05,1.16-2.6,1.16-2.042,0-2.542-.607-2.266-1.16l7.794-16.8a8.9,8.9,0,0,0,.884-2.707c0-.387-.166-.663-.553-.663-1.492,0-4.7,4.86-5.141,4.86a1,1,0,0,1-.884-.94c0-.5,5.691-7.46,9.062-7.46,2.042,0,2.763,1.105,2.763,2.486a10.5,10.5,0,0,1-1.1,3.926l-1.216,2.652c2.763-4.753,7.184-9.062,11.108-9.062a3.317,3.317,0,0,1,3.592,3.647,6.769,6.769,0,0,1-.663,2.763l-1.1,2.266c2.874-4.641,6.8-8.676,10.61-8.676a3.27,3.27,0,0,1,3.536,3.536,6.5,6.5,0,0,1-.719,2.874Z" transform="translate(0.003 -4.777)" fill="#5a5b5e"/>
      <g id="Group_22" data-name="Group 22" transform="translate(42.978)">
        <path id="Path_335" data-name="Path 335" d="M81.6,38l-6.229-9H68.5v9H61.019V5.7H75a17.955,17.955,0,0,1,7.453,1.431,11.079,11.079,0,0,1,4.869,4.062,11.193,11.193,0,0,1,1.708,6.23A10.963,10.963,0,0,1,87.3,23.629a10.967,10.967,0,0,1-4.915,3.992L89.633,38ZM79.71,13.245a7.853,7.853,0,0,0-5.122-1.454H68.5v11.26h6.092a7.758,7.758,0,0,0,5.122-1.479,5.133,5.133,0,0,0,1.754-4.155,5.119,5.119,0,0,0-1.754-4.172Z" transform="translate(-61.019 -1.679)" fill="#003587"/>
        <path id="Path_336" data-name="Path 336" d="M130.1,30.608H111.317a5.846,5.846,0,0,0,2.4,3.644,7.945,7.945,0,0,0,4.708,1.338,9.522,9.522,0,0,0,3.438-.577,8.321,8.321,0,0,0,2.8-1.818l3.831,4.155q-3.508,4.015-10.245,4.015a16.2,16.2,0,0,1-7.43-1.638,12,12,0,0,1-4.984-4.546,12.518,12.518,0,0,1-1.754-6.6A12.692,12.692,0,0,1,105.805,22a12.128,12.128,0,0,1,4.754-4.569,14.72,14.72,0,0,1,13.361-.07,11.463,11.463,0,0,1,4.638,4.5,13.42,13.42,0,0,1,1.685,6.807Q130.238,28.808,130.1,30.608Zm-16.845-7.984a5.9,5.9,0,0,0-2.031,3.785h12.23a5.956,5.956,0,0,0-2.031-3.762,6.072,6.072,0,0,0-4.062-1.409,6.2,6.2,0,0,0-4.107,1.385Z" transform="translate(-73.75 -4.667)" fill="#003587"/>
        <path id="Path_337" data-name="Path 337" d="M149.207,40.6A15.776,15.776,0,0,1,144.5,38.68l2.4-5.169a15.089,15.089,0,0,0,4.015,1.73,16.817,16.817,0,0,0,4.615.669q4.569,0,4.569-2.262a1.6,1.6,0,0,0-1.247-1.523,18.513,18.513,0,0,0-3.83-.785,36.859,36.859,0,0,1-5.031-1.061,7.8,7.8,0,0,1-3.438-2.123,6.036,6.036,0,0,1-1.454-4.338,6.794,6.794,0,0,1,1.361-4.176,8.76,8.76,0,0,1,3.969-2.838,16.956,16.956,0,0,1,6.161-1.016,24.187,24.187,0,0,1,5.238.577,14.676,14.676,0,0,1,4.315,1.592l-2.4,5.122a14.335,14.335,0,0,0-7.154-1.846,7.277,7.277,0,0,0-3.462.646,1.9,1.9,0,0,0-1.154,1.661,1.649,1.649,0,0,0,1.246,1.615,22.033,22.033,0,0,0,3.969.877,42.572,42.572,0,0,1,4.984,1.085,7.493,7.493,0,0,1,3.369,2.1,5.963,5.963,0,0,1,1.43,4.246,6.557,6.557,0,0,1-1.385,4.107,8.838,8.838,0,0,1-4.038,2.792,17.991,17.991,0,0,1-6.3.992,24.121,24.121,0,0,1-6.044-.759Z" transform="translate(-85.704 -4.663)" fill="#003587"/>
        <path id="Path_338" data-name="Path 338" d="M182.575,6.875a3.74,3.74,0,0,1-1.249-2.862,3.742,3.742,0,0,1,1.249-2.861A4.569,4.569,0,0,1,185.8,0a4.682,4.682,0,0,1,3.231,1.108,3.551,3.551,0,0,1,1.247,2.769,3.919,3.919,0,0,1-1.247,2.977A4.515,4.515,0,0,1,185.8,8.029a4.565,4.565,0,0,1-3.227-1.154Zm-.369,4.615h7.2V36.319h-7.2Z" transform="translate(-96.594 0.006)" fill="#003587"/>
        <path id="Path_339" data-name="Path 339" d="M202.163,2.949h7.2V37.193h-7.2Z" transform="translate(-102.755 -0.868)" fill="#003587"/>
        <path id="Path_340" data-name="Path 340" d="M221.756,6.875a3.741,3.741,0,0,1-1.247-2.862,3.743,3.743,0,0,1,1.247-2.861A4.569,4.569,0,0,1,224.987,0a4.682,4.682,0,0,1,3.231,1.108,3.551,3.551,0,0,1,1.247,2.769,3.919,3.919,0,0,1-1.247,2.977,4.515,4.515,0,0,1-3.231,1.177,4.565,4.565,0,0,1-3.231-1.154Zm-.369,4.615h7.2V36.319h-7.2Z" transform="translate(-108.18 0.006)" fill="#003587"/>
        <path id="Path_341" data-name="Path 341" d="M264.756,30.606H245.972a5.846,5.846,0,0,0,2.4,3.644,7.944,7.944,0,0,0,4.708,1.338,9.52,9.52,0,0,0,3.438-.577,8.316,8.316,0,0,0,2.793-1.823l3.83,4.155q-3.507,4.015-10.245,4.015a16.206,16.206,0,0,1-7.43-1.638,12.006,12.006,0,0,1-4.984-4.546,12.515,12.515,0,0,1-1.754-6.6A12.694,12.694,0,0,1,240.458,22a12.129,12.129,0,0,1,4.754-4.569,14.716,14.716,0,0,1,13.361-.07,11.462,11.462,0,0,1,4.639,4.5,13.424,13.424,0,0,1,1.685,6.807Q264.895,28.806,264.756,30.606Zm-16.845-7.984a5.894,5.894,0,0,0-2.031,3.785H258.11a5.955,5.955,0,0,0-2.03-3.762,6.071,6.071,0,0,0-4.062-1.409,6.2,6.2,0,0,0-4.107,1.385Z" transform="translate(-113.567 -4.665)" fill="#003587"/>
        <path id="Path_342" data-name="Path 342" d="M305.11,18.556q2.838,2.769,2.838,8.215V40.985h-7.2V27.878a6.472,6.472,0,0,0-1.292-4.407,4.741,4.741,0,0,0-3.738-1.454A5.731,5.731,0,0,0,291.38,23.7a6.973,6.973,0,0,0-1.615,5.007V40.985h-7.2V16.156h6.877v2.907A9.554,9.554,0,0,1,293,16.638a12.385,12.385,0,0,1,4.661-.854A10.219,10.219,0,0,1,305.11,18.556Z" transform="translate(-126.53 -4.66)" fill="#003587"/>
        <path id="Path_343" data-name="Path 343" d="M332.2,39.719a12.26,12.26,0,0,1-4.938-4.546,12.4,12.4,0,0,1-1.777-6.6,12.4,12.4,0,0,1,1.777-6.6,12.266,12.266,0,0,1,4.938-4.546,15.274,15.274,0,0,1,7.13-1.638,13.828,13.828,0,0,1,6.854,1.638,9.723,9.723,0,0,1,4.269,4.684l-5.585,3a6.1,6.1,0,0,0-5.584-3.415,6.32,6.32,0,0,0-4.66,1.847,6.8,6.8,0,0,0-1.846,5.031,6.794,6.794,0,0,0,1.846,5.03,6.315,6.315,0,0,0,4.661,1.846,6.039,6.039,0,0,0,5.584-3.415l5.585,3.045a9.915,9.915,0,0,1-4.27,4.615,13.663,13.663,0,0,1-6.854,1.661,15.265,15.265,0,0,1-7.131-1.638Z" transform="translate(-139.221 -4.664)" fill="#003587"/>
        <path id="Path_344" data-name="Path 344" d="M389.651,30.606H370.867a5.845,5.845,0,0,0,2.4,3.644,7.944,7.944,0,0,0,4.706,1.338,9.52,9.52,0,0,0,3.438-.577,8.316,8.316,0,0,0,2.793-1.823l3.83,4.155q-3.507,4.015-10.245,4.015a16.206,16.206,0,0,1-7.43-1.638,12.005,12.005,0,0,1-4.984-4.546,12.515,12.515,0,0,1-1.754-6.6A12.693,12.693,0,0,1,365.351,22a12.129,12.129,0,0,1,4.754-4.569,14.716,14.716,0,0,1,13.361-.07,11.461,11.461,0,0,1,4.638,4.5,13.423,13.423,0,0,1,1.685,6.807Q389.789,28.806,389.651,30.606Zm-16.845-7.984a5.893,5.893,0,0,0-2.03,3.785H383a5.956,5.956,0,0,0-2.03-3.762,6.071,6.071,0,0,0-4.062-1.409,6.2,6.2,0,0,0-4.107,1.385Z" transform="translate(-150.498 -4.665)" fill="#003587"/>
      </g>
      <path id="Path_387" data-name="Path 387" d="M400.228,14.36v.554h-1.071v2.8h-.665v-2.8H397.42V14.36Zm3.621,3.35-.123-1.972c-.013-.258-.013-.579-.025-.936h-.037c-.087.3-.185.69-.282,1l-.6,1.86h-.69l-.6-1.909c-.061-.258-.161-.653-.234-.948h-.037c0,.308-.013.628-.024.936l-.124,1.972h-.64l.247-3.35h1L402.249,16c.074.259.135.5.222.85h.013c.086-.308.16-.591.234-.837l.578-1.65h.961l.258,3.35Z" transform="translate(-117.515 -4.242)" fill="#003587"/>
    </g>
  </g>
</svg>
