<svg xmlns="http://www.w3.org/2000/svg" width="119.884" height="37.965" viewBox="0 0 119.884 37.965">
  <g id="Group_236" data-name="Group 236" transform="translate(-5062.002 356.723)">
    <g id="Group_124" data-name="Group 124" transform="translate(5105.907 -344.418)">
      <path id="Path_1129" data-name="Path 1129" d="M0,4.511H8v9.743h3.577V4.511H19.54V1.671H0Z" transform="translate(0 -1.204)" fill="#001365"/>
      <rect id="Rectangle_41" data-name="Rectangle 41" width="3.577" height="12.583" transform="translate(24.254 0.467)" fill="#001365"/>
      <path id="Path_1130" data-name="Path 1130" d="M122.7,1.413l-9.042,12.655h3.954l1.708-2.445h11.181l1.71,2.445h4.134L127.307,1.413Zm-1.564,7.6,3.775-5.374,3.757,5.374Z" transform="translate(-81.876 -1.018)" fill="#001365"/>
      <path id="Path_1131" data-name="Path 1131" d="M210.555,8.287h7.766a1.834,1.834,0,0,1-.432,1.4c-.809.809-2.8,1.079-5.447,1.079-3.236,0-4.925-.593-5.716-1.383a3.584,3.584,0,0,1-.881-2.625A3.637,3.637,0,0,1,206.8,4.08c.7-.7,2.409-1.276,5.733-1.276a22.644,22.644,0,0,1,8.143,1.258V1.043A26.215,26.215,0,0,0,212.6,0c-5.087,0-7.514,1.025-8.718,2.229a6.105,6.105,0,0,0-1.69,4.53,6.105,6.105,0,0,0,1.69,4.53c1.222,1.241,3.6,2.229,8.558,2.229,3.973,0,6.417-.557,7.927-2.067.827-.828,1.258-2,1.258-4.009V5.77H210.555Z" transform="translate(-145.65)" fill="#001365"/>
    </g>
    <path id="Path_1132" data-name="Path 1132" d="M85.209,0V2.293a.392.392,0,0,0,.392.392h1.514a.524.524,0,0,1,.525.525V32.185l2.706-2.247a8.53,8.53,0,0,0,3.081-6.563V3.209a.524.524,0,0,1,.523-.525h1.634a.392.392,0,0,0,.392-.392V0Z" transform="translate(5000.622 -356.723)" fill="#001365"/>
    <path id="Path_1133" data-name="Path 1133" d="M10.767,0V2.293a.392.392,0,0,1-.392.392H8.862a.524.524,0,0,0-.524.524V32.185L5.632,29.939A8.53,8.53,0,0,1,2.55,23.376V3.209a.524.524,0,0,0-.524-.525H.392A.392.392,0,0,1,0,2.293V0Z" transform="translate(5062.002 -356.723)" fill="#001365"/>
    <path id="Path_1134" data-name="Path 1134" d="M42.349,2.685h1.575a.524.524,0,0,1,.524.524V35.544l3.129,2.421,3.02-2.337V3.209a.524.524,0,0,1,.524-.525H52.7a.392.392,0,0,0,.392-.392V0H41.956V2.293a.392.392,0,0,0,.393.392Z" transform="translate(5031.779 -356.723)" fill="#001365"/>
  </g>
</svg>
