<svg xmlns="http://www.w3.org/2000/svg" width="33.301" height="36.544" viewBox="0 0 33.301 36.544">
  <g id="symbol" transform="translate(23.94 26.272)">
    <g id="Group_164" data-name="Group 164" transform="translate(-23.94 -26.272)">
      <path id="Path_1187" data-name="Path 1187" d="M85.209,0V2.207a.377.377,0,0,0,.377.377h1.457a.5.5,0,0,1,.506.5V30.98l2.6-2.163A8.21,8.21,0,0,0,93.119,22.5V3.089a.5.5,0,0,1,.5-.5H95.2a.377.377,0,0,0,.377-.377V0Z" transform="translate(-62.272)" fill="#001365"/>
      <path id="Path_1188" data-name="Path 1188" d="M10.364,0V2.207a.377.377,0,0,1-.377.377H8.53a.5.5,0,0,0-.5.5V30.98l-2.6-2.163A8.21,8.21,0,0,1,2.455,22.5V3.089a.5.5,0,0,0-.5-.5H.377A.377.377,0,0,1,0,2.207V0Z" transform="translate(0)" fill="#001365"/>
      <path id="Path_1189" data-name="Path 1189" d="M42.334,2.584H43.85a.5.5,0,0,1,.5.5V34.214l3.012,2.33,2.907-2.25V3.089a.5.5,0,0,1,.5-.5h1.516a.377.377,0,0,0,.377-.377V0H41.956V2.207a.377.377,0,0,0,.378.377Z" transform="translate(-30.662)" fill="#001365"/>
    </g>
  </g>
</svg>
